<svg width="713" height="464" viewBox="0 0 713 464" fill="none" xmlns="http://www.w3.org/2000/svg">
    <path d="M493.284 370.566H219.716c-6.525 0-11.815 5.284-11.815 11.802v69.829c0 6.519 5.29 11.803 11.815 11.803h273.568c6.525 0 11.814-5.284 11.814-11.803v-69.829c0-6.518-5.289-11.802-11.814-11.802z" fill="#010201"/>
    <path d="M486.11 233.965h-39.081v39.043h39.081v-39.043z" fill="#000"/>
    <path d="M528.766 224.217a32.086 32.086 0 0 0 4.756-23.927l-2.982-15.592a32.109 32.109 0 0 0-13.242-20.485l-9.101-47.609 2.956-23.542a22.869 22.869 0 0 0-4.644-16.883 22.915 22.915 0 0 0-15.23-8.662l-4.5-.565-.18-.347a22.906 22.906 0 0 0-30.853-9.89l-8.177 4.2a22.775 22.775 0 0 0-6.286 4.752 103.565 103.565 0 0 0-59.612-28.537 27.902 27.902 0 0 0 1.466-8.99 28.234 28.234 0 0 0-6.465-17.705A28.286 28.286 0 0 0 360.502.73a28.307 28.307 0 0 0-18.682 2.61 28.27 28.27 0 0 0-12.883 13.767l-11.03 3.34a22.898 22.898 0 0 0-11.754 8.263 22.864 22.864 0 0 0-4.508 13.634 23.449 23.449 0 0 0 .193 3.031 103.883 103.883 0 0 0-39.481 31.059 103.747 103.747 0 0 0-20.272 45.936 26.206 26.206 0 0 0-1.504 30.272v54.789a22.778 22.778 0 0 0 2.571 10.429 42.35 42.35 0 0 0-3.69 17.351v26.11a22.773 22.773 0 0 0 4.512 13.652v23.118a32.17 32.17 0 0 0 10.709 23.979v.269a22.86 22.86 0 0 0 6.706 16.174 22.907 22.907 0 0 0 16.19 6.7h3.523v9.414a22.86 22.86 0 0 0 6.706 16.174 22.906 22.906 0 0 0 16.19 6.7h42.655a27.021 27.021 0 0 0 14.321-4.071 22.86 22.86 0 0 0 13.061 4.071h42.629a27.237 27.237 0 0 0 11.921-2.76 27.193 27.193 0 0 0 14.667-18.783 27.138 27.138 0 0 0-.221-12.222 22.888 22.888 0 0 0 10.731-8.396 22.853 22.853 0 0 0 4.053-13.001v-68.788c.36-.565.72-1.13 1.067-1.695a55.365 55.365 0 0 0 13.679-7.09l4.011-.77 1.465 7.706a22.884 22.884 0 0 0 9.627 14.634 22.929 22.929 0 0 0 17.164 3.552l8.999-1.721a22.878 22.878 0 0 0 18.137-17.837c.609-2.943.632-5.977.067-8.929l-3.265-17.184z" fill="#010201"/>
    <path d="M506.616 217.153a11.758 11.758 0 0 0 5.71-5.31 11.74 11.74 0 0 0 1.129-7.713l-2.983-15.604a11.731 11.731 0 0 0-3.889-6.76 11.76 11.76 0 0 0-7.269-2.834l-11.789-61.648 3.355-26.726a2.444 2.444 0 0 0-1.213-2.443 2.449 2.449 0 0 0-.908-.306l-9.127-1.13a2.457 2.457 0 0 0-2.739 2.12l-.36 2.902-8.099-15.733a2.436 2.436 0 0 0-2.382-1.332 2.447 2.447 0 0 0-.922.266l-10.284 5.33 17.998 34.959 12.624 66.104-12.239 2.325-.707-3.712a2.444 2.444 0 0 0-1.03-1.565 2.433 2.433 0 0 0-1.836-.374l-5.271 1.001-11.956 2.286V144.14a5.836 5.836 0 0 0 4.201-5.758 5.83 5.83 0 0 0-4.51-5.519 83.194 83.194 0 0 0-26.693-54.172 83.349 83.349 0 0 0-56.328-21.885h-.09a8.045 8.045 0 0 0-7.714-5.561h-.835V33.598a7.868 7.868 0 0 0-.9-11.726 3.521 3.521 0 0 0-.579-.385 7.82 7.82 0 0 0-9.743 1.305 7.804 7.804 0 0 0-.76 9.791L323.05 40.29a2.563 2.563 0 0 0-.963 2.462 2.57 2.57 0 0 0 1.721 2.008l22.446 6.794a8.019 8.019 0 0 0-5.258 4.842c-.064.154-.116.32-.167.475a83.36 83.36 0 0 0-54.084 23.053 83.21 83.21 0 0 0-25.377 52.992 5.835 5.835 0 0 0-4.414 5.495 5.835 5.835 0 0 0 4.106 5.73v65.68c3.947.208 7.904-.09 11.776-.886a45.944 45.944 0 0 0 9.59-3.083 74.06 74.06 0 0 0 7.906 7.115h-13.061a17.415 17.415 0 0 0-16.082 10.735 17.371 17.371 0 0 0-1.325 6.655v33.392h4.525v34.33a11.823 11.823 0 0 0 3.072 7.953 11.843 11.843 0 0 0 7.624 3.825v14.923h26.419v32.288h47.746c.367.004.721-.134.989-.385 6.223-5.831 2.134-13.074-3.625-13.074h-.09v-19.663a28.753 28.753 0 0 0 5.708-2.03h19.283v35.178h47.746c.368.005.723-.133.99-.385 6.222-5.831 2.134-13.075-3.612-13.075h-.09v-19.881a29.267 29.267 0 0 0 7.713 1.053h13.1v-77.663a73.637 73.637 0 0 0 7.829-12.843l1.839-.36a34.827 34.827 0 0 0 16.776-8.322l28.964-5.523 5.309 27.729a2.454 2.454 0 0 0 2.867 1.952l11.442-2.183-5.772-30.439z" fill="#fff"/>
    <path d="M296.245 215.419h119.957c4.96 0 9.718 1.969 13.226 5.474a18.674 18.674 0 0 1 5.478 13.213v50.346H277.541v-50.346a18.67 18.67 0 0 1 5.478-13.213 18.726 18.726 0 0 1 13.226-5.474z" fill="#010201"/>
    <path d="M277.541 283.167h157.366v7.771c0 7.565-3.009 14.82-8.363 20.17a28.568 28.568 0 0 1-20.19 8.354H306.08a28.566 28.566 0 0 1-20.189-8.354 28.51 28.51 0 0 1-8.363-20.17v-7.771h.013z" fill="#000"/>
    <path d="M434.906 273.946H277.541v10.596h157.365v-10.596z" fill="#4A3024"/>
    <path d="M371.747 272.572v13.434h20.466v-13.434h-20.466zm17.663 10.518h-14.912v-7.603h14.912v7.603z" fill="#F3CC23"/>
    <path d="M389.706 277.94h-7.186v2.595h7.186v-2.595z" fill="#F3CC23"/>
    <path d="M414.119 313.336h-40.122v32.75h40.122v-32.75z" fill="#000"/>
    <path d="M373.997 346.086h43.567a3.37 3.37 0 0 1 3.369 3.365v1.837a3.37 3.37 0 0 1-3.369 3.365h-43.567v-8.567zM414.119 337.533h-40.122v8.553h40.122v-8.553zM303.959 346.086h43.568a3.376 3.376 0 0 1 2.381.986 3.364 3.364 0 0 1 .987 2.379v1.837c0 .442-.087.879-.256 1.288a3.37 3.37 0 0 1-3.112 2.077h-43.568v-8.567z" fill="#4A3024"/>
    <path d="M344.081 313.336h-40.122v32.75h40.122v-32.75z" fill="#000"/>
    <path d="M344.081 337.533h-40.122v8.553h40.122v-8.553z" fill="#4A3024"/>
    <path d="M277.541 284.619h84.513v20.138a13.188 13.188 0 0 1-3.871 9.336 13.218 13.218 0 0 1-9.345 3.867h-71.297v-33.393.052z" fill="#B01630"/>
    <path d="M362.054 295.51a22.43 22.43 0 0 1-6.578 15.865 22.47 22.47 0 0 1-15.881 6.572h-62.054v4.405h62.054a26.908 26.908 0 0 0 18.991-7.869 26.858 26.858 0 0 0 7.877-18.973v-10.891h-4.409v10.891z" fill="#F3CC23"/>
    <path d="M434.919 317.947h-19.797a13.22 13.22 0 0 1-12.218-8.139 13.188 13.188 0 0 1-1.011-5.051v-20.138h33.026v33.392-.064z" fill="#B01630"/>
    <path d="M401.893 295.51a22.43 22.43 0 0 0 6.578 15.865 22.47 22.47 0 0 0 15.881 6.572h10.568v4.405h-10.568a26.908 26.908 0 0 1-18.991-7.869 26.858 26.858 0 0 1-7.877-18.973v-10.891h4.409v10.891z" fill="#F3CC23"/>
    <path opacity=".25" d="M307.353 284.619h-29.812v33.328h29.812v-33.328z" fill="#000"/>
    <path d="M397.496 284.619h-31.033v4.726h31.033v-4.726z" fill="#F3CC23"/>
    <path d="M301.504 238.756h-34.659l-.013 18.314v29h34.672v-47.314z" fill="#B01630"/>
    <path d="M266.845 286.07h34.71v14.05a7.366 7.366 0 0 1-2.161 5.213 7.381 7.381 0 0 1-5.218 2.159h-19.965a7.381 7.381 0 0 1-5.218-2.159 7.366 7.366 0 0 1-2.161-5.213v-14.05h.013z" fill="#E8CFA0"/>
    <path d="M301.503 287.881h3.523a3.497 3.497 0 0 1 3.497 3.493v1.901a3.497 3.497 0 0 1-3.497 3.493h-3.523v-8.9.013z" fill="#E8CFA0"/>
    <path d="M277.888 215.419h22.78v20.395a20.129 20.129 0 0 1-5.904 14.24 20.166 20.166 0 0 1-14.254 5.899h-18.255v-24.98a15.539 15.539 0 0 1 4.583-11.021 15.568 15.568 0 0 1 11.05-4.533z" fill="#010201"/>
    <path d="M300.668 228.674a27.266 27.266 0 0 1-7.998 19.289 27.319 27.319 0 0 1-19.308 7.99h-11.043v5.368h11.043a32.718 32.718 0 0 0 23.092-9.574 32.66 32.66 0 0 0 9.575-23.073v-13.255h-5.361v13.255z" fill="#F3CC23"/>
    <path d="M301.516 281.254h-34.671v4.816h34.671v-4.816z" fill="#000"/>
    <path d="m491.711 217.805-6.51-34.061 13.815-2.635a7.38 7.38 0 0 1 8.632 5.858l3.742 19.579a7.37 7.37 0 0 1-5.864 8.624l-13.815 2.635z" fill="#E8CFA0"/>
    <path d="m456.71 189.245 6.505 34.009 28.514-5.433-6.492-34.022-28.527 5.433v.013zM437.451 214.307l-1.391-7.279a13.592 13.592 0 0 1 2.083-10.24 13.62 13.62 0 0 1 8.734-5.749l9.787-1.867 6.51 34.062-9.787 1.867a13.64 13.64 0 0 1-10.202-2.104 13.615 13.615 0 0 1-5.734-8.69z" fill="#B01630"/>
    <path d="m499.343 192.036-9.029 1.723 10.24 53.577 9.029-1.722-10.24-53.578z" fill="#EFF0F0"/>
    <path d="m484.157 112.646-9.029 1.722 15.173 79.389 9.029-1.723-15.173-79.388z" fill="#A8D42E"/>
    <path d="m466.267 77.092-8.174 4.2 18.722 36.378 8.175-4.199-18.723-36.379z" fill="#A8D42E"/>
    <path d="m488.429 90.275-9.12-1.143-3.586 28.558 9.12 1.143 3.586-28.558z" fill="#A8D42E"/>
    <path d="m488.566 189.557 4.029-.769a3.498 3.498 0 0 1 4.09 2.776l.364 1.905a3.493 3.493 0 0 1-2.779 4.087l-4.028.768-1.671-8.742-.005-.025z" fill="#E8CFA0"/>
    <path d="m442.415 185.583 22.376-4.268 3.829 20.033a20.121 20.121 0 0 1-3.126 15.093 20.16 20.16 0 0 1-12.893 8.465l-17.868 3.408-4.69-24.537a15.54 15.54 0 0 1 2.415-11.657 15.57 15.57 0 0 1 9.957-6.537z" fill="#010201"/>
    <path d="M467.264 194.369a27.243 27.243 0 0 1-4.212 20.481 27.307 27.307 0 0 1-17.488 11.486l-10.837 2.068 1.002 5.266 10.851-2.068a32.705 32.705 0 0 0 20.88-13.73 32.648 32.648 0 0 0 5.075-24.453l-2.481-13.023-5.271 1.002 2.481 12.971z" fill="#F3CC23"/>
    <path d="m491.777 217.823-6.503-34.023-4.735.903 6.502 34.024 4.736-.904z" fill="#000"/>
    <path d="M291.206 112.378H422.18a27.74 27.74 0 0 1 19.632 8.092 27.69 27.69 0 0 1 8.136 19.598v28.73a57.764 57.764 0 0 1-16.944 40.867 57.878 57.878 0 0 1-40.906 16.928h-70.707a57.878 57.878 0 0 1-40.906-16.928 57.764 57.764 0 0 1-16.944-40.867v-28.73c0-7.335 2.913-14.37 8.1-19.561a27.73 27.73 0 0 1 19.565-8.129z" fill="#E8CFA0"/>
    <path d="M307.353 164.727h142.595v53.171a55.927 55.927 0 0 1-16.406 39.568 56.035 56.035 0 0 1-39.606 16.39h-30.571a56.035 56.035 0 0 1-39.606-16.39 55.927 55.927 0 0 1-16.406-39.568v-53.171z" fill="#59595B"/>
    <path d="M422.694 176.081h-81.441c-4.743 0-8.587 3.841-8.587 8.579v39.416c0 4.738 3.844 8.579 8.587 8.579h81.441c4.742 0 8.587-3.841 8.587-8.579V184.66c0-4.738-3.845-8.579-8.587-8.579z" fill="#010201"/>
    <path d="M369.098 59.246H344.3a80.851 80.851 0 0 0-57.142 23.646 80.693 80.693 0 0 0-23.669 57.086v45.799a43.884 43.884 0 0 0 31.016-12.835 43.8 43.8 0 0 0 12.848-30.986v-10.66a10.91 10.91 0 0 1 3.205-7.711 10.934 10.934 0 0 1 7.722-3.193h109.157c2.896 0 5.674 1.149 7.723 3.193a10.914 10.914 0 0 1 3.205 7.711v42.897c0 3.065 1.219 6.005 3.388 8.173a11.576 11.576 0 0 0 8.182 3.386v-45.774a80.673 80.673 0 0 0-23.674-57.099 80.807 80.807 0 0 0-26.228-17.499 80.865 80.865 0 0 0-30.935-6.134z" fill="#000"/>
    <path d="M369.098 59.246H344.3a80.851 80.851 0 0 0-57.142 23.646 80.693 80.693 0 0 0-23.669 57.086v67.453a43.884 43.884 0 0 0 31.016-12.835 43.8 43.8 0 0 0 12.848-30.986v-32.314a10.91 10.91 0 0 1 3.205-7.711 10.934 10.934 0 0 1 7.722-3.193h109.157c2.896 0 5.674 1.149 7.723 3.193a10.914 10.914 0 0 1 3.205 7.711v42.897c0 3.065 1.219 6.005 3.388 8.173a11.576 11.576 0 0 0 8.182 3.386v-45.774a80.673 80.673 0 0 0-23.674-57.099 80.807 80.807 0 0 0-26.228-17.499 80.865 80.865 0 0 0-30.935-6.134z" fill="#010201"/>
    <path d="M383.098 147.556h2.417a4.436 4.436 0 0 1 4.435 4.431v11.636h-11.287v-11.636c0-1.175.467-2.302 1.299-3.133a4.438 4.438 0 0 1 3.136-1.298z" fill="#EF9F6B"/>
    <path d="M356.963 148.84a5.135 5.135 0 0 1-3.175 4.746 5.146 5.146 0 0 1-5.604-1.113 5.135 5.135 0 0 1 3.636-8.77c1.364 0 2.672.541 3.637 1.505a5.135 5.135 0 0 1 1.506 3.632zM422.064 148.84a5.135 5.135 0 0 1-3.175 4.746 5.146 5.146 0 0 1-5.604-1.113 5.138 5.138 0 0 1 3.637-8.77c1.363 0 2.671.541 3.636 1.505a5.135 5.135 0 0 1 1.506 3.632zM359.579 137.345l-14.294-4.203-1.259 4.275 14.293 4.203 1.26-4.275zM410.298 141.592l14.293-4.203-1.259-4.275-14.294 4.202 1.26 4.276z" fill="#000"/>
    <path d="M374.498 197.503h-45.792c-4.743 0-8.587 3.841-8.587 8.579v17.994c0 4.738 3.844 8.579 8.587 8.579h45.792c4.743 0 8.588-3.841 8.588-8.579v-17.994c0-4.738-3.845-8.579-8.588-8.579z" fill="#A50932"/>
    <path d="M411.214 176.055h-53.865v7.462h53.865v-7.462z" fill="#fff"/>
    <path d="M352.541 176.081h4.846v7.821a1.888 1.888 0 0 1-1.89 1.888h-1.028a1.89 1.89 0 0 1-1.89-1.888v-7.821h-.038z" fill="#fff"/>
    <path d="M307.353 149.752h3.214a11.78 11.78 0 0 1 8.327 3.446 11.758 11.758 0 0 1 3.449 8.318v3.211h-14.99v-14.975z" fill="#59595B"/>
    <path d="M411.214 176.055h4.808v7.834a1.89 1.89 0 0 1-1.89 1.888h-1.028a1.892 1.892 0 0 1-1.89-1.888v-7.834zM362.324 232.604h43.902v-6.075h-43.902v6.075zM410.147 232.604h-3.857v-6.422c0-.202.04-.403.117-.59a1.553 1.553 0 0 1 .835-.834c.187-.077.388-.117.591-.117h.835a1.55 1.55 0 0 1 1.426.951c.077.187.117.388.117.59v6.422h-.064z" fill="#fff"/>
    <path d="M362.337 232.616h-3.857v-6.421a1.538 1.538 0 0 1 1.543-1.541h.835a1.543 1.543 0 0 1 1.543 1.541v6.421h-.064z" fill="#fff"/>
    <path d="M365.255 154.722h38.053c4.091 0 8.015 1.624 10.908 4.514a15.407 15.407 0 0 1 4.518 10.898v5.947h-68.906v-5.947c0-4.087 1.625-8.007 4.519-10.898a15.434 15.434 0 0 1 10.908-4.514z" fill="#424243"/>
    <path d="M338.373 99.42a5.705 5.705 0 0 0 5.708-5.703 5.705 5.705 0 0 0-5.708-5.702 5.705 5.705 0 0 0-5.707 5.702 5.705 5.705 0 0 0 5.707 5.702zM416.022 99.42a5.705 5.705 0 0 0 5.708-5.703 5.706 5.706 0 0 0-5.708-5.702 5.705 5.705 0 0 0-5.708 5.702 5.705 5.705 0 0 0 5.708 5.702z" fill="#F3CC23"/>
    <path d="M438.365 141.956h11.57v43.821a11.575 11.575 0 0 1-8.181-3.385 11.554 11.554 0 0 1-3.389-8.174v-32.262z" fill="#B01630"/>
    <path d="M262.062 135.188h45.291v6.768h-45.291a2.66 2.66 0 0 1-2.661-2.658v-1.452a2.648 2.648 0 0 1 .78-1.88 2.675 2.675 0 0 1 1.881-.778zM438.133 135.188h13.293a2.658 2.658 0 0 1 2.661 2.658v1.452a2.661 2.661 0 0 1-2.661 2.658h-13.293v-6.768zM392.997 98.597v13.781h-17.715v-12.42c0-30.001-12.585-41.521-38.361-41.521h-11.48v-1.285h14.54c29.105-.038 53.016 8.554 53.016 41.445zM307.353 112.378h130.781v2.428a8.885 8.885 0 0 1-2.606 6.284 8.899 8.899 0 0 1-6.291 2.603H316.249a8.898 8.898 0 0 1-6.29-2.603 8.88 8.88 0 0 1-2.606-6.284v-2.428z" fill="#F3CC23"/>
    <path d="M325.402 127.674a5.512 5.512 0 0 0 5.515-5.509 5.512 5.512 0 0 0-5.515-5.51 5.512 5.512 0 0 0-5.515 5.51 5.512 5.512 0 0 0 5.515 5.509zM429.777 122.165a5.524 5.524 0 0 1-6.606 5.416 5.53 5.53 0 0 1-4.344-4.339 5.524 5.524 0 0 1 5.422-6.6 5.53 5.53 0 0 1 3.909 1.618 5.517 5.517 0 0 1 1.619 3.905zM384.011 135.085c9.429 0 17.073-7.636 17.073-17.056 0-9.419-7.644-17.056-17.073-17.056s-17.072 7.637-17.072 17.056c0 9.42 7.643 17.056 17.072 17.056z" fill="#F3CC23"/>
    <path opacity=".25" d="M436.501 115.64h-38.027a17.045 17.045 0 0 0-6.238-8.206 17.071 17.071 0 0 0-19.664 0 17.037 17.037 0 0 0-6.237 8.206H305.72a11.293 11.293 0 0 0 3.314 8.005 11.31 11.31 0 0 0 8.012 3.31h1.453a5.485 5.485 0 0 0 5.277 3.975 5.493 5.493 0 0 0 5.277-3.975h37.282a17.04 17.04 0 0 0 6.237 8.207 17.072 17.072 0 0 0 19.664 0 17.048 17.048 0 0 0 6.238-8.207h18.872a5.52 5.52 0 0 0 8.829 2.686 5.51 5.51 0 0 0 1.854-3.058 11.315 11.315 0 0 0 6.107-4.025 11.297 11.297 0 0 0 2.365-6.918z" fill="#000"/>
    <path d="M307.353 112.378h130.781v2.428a8.885 8.885 0 0 1-2.606 6.284 8.899 8.899 0 0 1-6.291 2.603H316.249a8.898 8.898 0 0 1-6.29-2.603 8.88 8.88 0 0 1-2.606-6.284v-2.428z" fill="#F3CC23"/>
    <path d="M325.402 127.674a5.512 5.512 0 0 0 5.515-5.509 5.512 5.512 0 0 0-5.515-5.51 5.512 5.512 0 0 0-5.515 5.51 5.512 5.512 0 0 0 5.515 5.509zM429.777 122.165a5.524 5.524 0 0 1-6.606 5.416 5.53 5.53 0 0 1-4.344-4.339 5.524 5.524 0 0 1 5.422-6.6 5.53 5.53 0 0 1 3.909 1.618 5.517 5.517 0 0 1 1.619 3.905zM384.011 135.085c9.429 0 17.073-7.636 17.073-17.056 0-9.419-7.644-17.056-17.073-17.056s-17.072 7.637-17.072 17.056c0 9.42 7.643 17.056 17.072 17.056z" fill="#F3CC23"/>
    <path d="M263.541 163.61h43.863v9.388a34.42 34.42 0 0 1-10.094 24.348 34.487 34.487 0 0 1-24.372 10.085h-9.397V163.61z" fill="#B01630"/>
    <path d="M274.957 190.491a2.3 2.3 0 1 1-3.581-1.898 2.304 2.304 0 0 1 2.902.28c.431.429.675 1.01.679 1.618zM285.421 190.491a2.294 2.294 0 0 1-1.414 2.134 2.304 2.304 0 0 1-3.145-1.676 2.293 2.293 0 0 1 .988-2.362 2.299 2.299 0 0 1 3.571 1.904zM280.189 181.064a2.3 2.3 0 1 1-3.581-1.898 2.302 2.302 0 0 1 3.581 1.898zM290.666 181.064a2.303 2.303 0 0 1-1.384 2.16 2.303 2.303 0 0 1-3.169-1.641 2.3 2.3 0 1 1 4.553-.519zM274.957 171.637a2.299 2.299 0 0 1-2.742 2.269 2.298 2.298 0 0 1 .441-4.555 2.298 2.298 0 0 1 2.301 2.286zM285.421 171.637a2.292 2.292 0 0 1-1.414 2.134 2.304 2.304 0 0 1-3.145-1.676 2.293 2.293 0 0 1 .988-2.362 2.299 2.299 0 0 1 3.571 1.904zM295.899 171.637a2.307 2.307 0 0 1-1.412 2.133 2.303 2.303 0 0 1-3.145-1.667 2.302 2.302 0 0 1 .976-2.364 2.302 2.302 0 0 1 3.581 1.898z" fill="#424243"/>
    <path d="M347.347 53.685h15.182c1.159 0 2.271.46 3.091 1.279.82.819 1.28 1.93 1.28 3.087v1.195h-23.937V58.05a4.354 4.354 0 0 1 1.285-3.092 4.364 4.364 0 0 1 3.099-1.274z" fill="#F3CC23"/>
    <path d="M358.069 31.12h-6.236v22.565h6.236V31.119z" fill="#F3CC23"/>
    <path d="M354.944 33.52a5.32 5.32 0 0 0 5.323-5.316 5.32 5.32 0 0 0-5.323-5.317 5.32 5.32 0 0 0-5.322 5.317 5.32 5.32 0 0 0 5.322 5.317z" fill="#F3CC23"/>
    <path d="M351.834 34.15v16.504l-27.254-8.246 27.254-8.258zM307.353 141.969h-43.864v21.641h43.864v-21.641z" fill="#B01630"/>
    <path d="M280.189 162.21a2.299 2.299 0 0 1-2.742 2.269 2.298 2.298 0 0 1 .441-4.555 2.298 2.298 0 0 1 2.301 2.286zM290.666 162.21a2.298 2.298 0 0 1-2.742 2.269 2.298 2.298 0 0 1 .441-4.555 2.3 2.3 0 0 1 2.301 2.286zM274.957 152.783a2.295 2.295 0 0 1-1.421 2.124 2.307 2.307 0 0 1-2.507-.498 2.296 2.296 0 0 1-.499-2.506 2.303 2.303 0 0 1 3.753-.746c.431.432.674 1.016.674 1.626zM285.421 152.783a2.297 2.297 0 0 1-1.423 2.125 2.3 2.3 0 0 1-3-3.014 2.298 2.298 0 0 1 2.135-1.41 2.3 2.3 0 0 1 2.288 2.299zM295.898 152.783a2.295 2.295 0 0 1-1.42 2.124 2.31 2.31 0 0 1-2.508-.498 2.303 2.303 0 0 1-.499-2.506 2.299 2.299 0 0 1 2.126-1.419 2.302 2.302 0 0 1 2.301 2.299z" fill="#424243"/>
    <path d="M318.19 75.968c-14.295 6.087-24.94 18.083-24.94 18.083" stroke="#E4E5E6" stroke-width="4" stroke-linecap="round" stroke-linejoin="round"/>
    <path d="M285.717 106.021a3.302 3.302 0 0 0 3.304-3.301c0-1.823-1.479-3.3-3.304-3.3a3.302 3.302 0 0 0-3.304 3.3 3.302 3.302 0 0 0 3.304 3.301z" fill="#E4E5E6"/>
    <path d="M706.431 337.661a20.595 20.595 0 0 0-5.451-3.609c1.491-10.724 2.674-22.604 3.548-35.434 1.144-16.851 1.53-35.961 1.144-56.703a20.41 20.41 0 0 0-8.223-15.956 20.457 20.457 0 0 0-17.655-3.309 1221.31 1221.31 0 0 1-87.419 20.639 20.383 20.383 0 0 0-7.945 3.442 20.6 20.6 0 0 0-10.156-.758 1153.51 1153.51 0 0 1-23.024 3.982 20.463 20.463 0 0 0-11.802 6.416 20.428 20.428 0 0 0-5.27 12.348l-2.186.269a20.461 20.461 0 0 0-8.599-10.337 20.494 20.494 0 0 0-13.165-2.775c-7.714.976-15.427 1.9-23.141 2.735a20.443 20.443 0 0 0-6.749 1.952 20.725 20.725 0 0 0-10.953-2.029c-7.945.758-15.992 1.439-23.924 2.042a20.304 20.304 0 0 0-8.472 2.569 1214.756 1214.756 0 0 1-63.777 2.568 20.416 20.416 0 0 0-16.866 9.325 20.42 20.42 0 0 0-17.998-11.238 1175.45 1175.45 0 0 1-23.269-.591 20.485 20.485 0 0 0-12.277 3.57 65.21 65.21 0 0 0-6.981-2.684 79.447 79.447 0 0 0-18.923-3.467 75.717 75.717 0 0 0-19.284 1.001 55.373 55.373 0 0 0-12.341 3.917 20.429 20.429 0 0 0-14.334-8.245c-7.945-.835-15.98-1.772-23.86-2.761a20.186 20.186 0 0 0-9.064.899 1221.678 1221.678 0 0 1-61.103-9.671 20.565 20.565 0 0 0-8.549-3.853 1108.427 1108.427 0 0 1-23.603-4.855 20.488 20.488 0 0 0-15.426 2.787 20.494 20.494 0 0 0-4.551-2.029c-8.28-2.569-16.61-5.137-24.773-7.873a20.477 20.477 0 0 0-18.297 2.728 20.42 20.42 0 0 0-8.61 16.357 233.602 233.602 0 0 1-2.571 32.827 169.029 169.029 0 0 1-6.21 26.445 114.422 114.422 0 0 1-8.793 20.292 74.613 74.613 0 0 1-10.066 14.127 20.412 20.412 0 0 0-2.224 24.891 1058.548 1058.548 0 0 0 16.636 25.082 20.435 20.435 0 0 0 6.91 6.305 20.474 20.474 0 0 0 18.2.868 20.441 20.441 0 0 0 7.479-5.619 203.015 203.015 0 0 0 9.23-11.918 114.834 114.834 0 0 0 3.445 4.135 64.514 64.514 0 0 0 9.488 8.991 20.328 20.328 0 0 0 6.865 3.403 20.415 20.415 0 0 0 7.064 11.769 20.449 20.449 0 0 0 12.926 4.645l24.169.077a20.248 20.248 0 0 0 16.159-7.847 65.982 65.982 0 0 0 18.063 7.063 109.473 109.473 0 0 0 25.852 2.672c14.977 0 26.933-1.862 36.562-5.664a52.597 52.597 0 0 0 16.005-9.671 44.338 44.338 0 0 0 9.5 6.781 68.172 68.172 0 0 0 20.492 6.679 145.238 145.238 0 0 0 25.197 1.875c14.939 0 26.65-1.426 35.855-4.341 11.75-3.725 20.325-9.8 25.493-17.981a36.056 36.056 0 0 0 5.476-16.696 40.113 40.113 0 0 0 4.679 13.871 41.219 41.219 0 0 0 15.569 15.335 66.966 66.966 0 0 0 20.325 7.461 121.837 121.837 0 0 0 25.248 2.299c15.028 0 26.997-1.785 36.446-5.445a59.47 59.47 0 0 0 9.629-4.752 20.57 20.57 0 0 0 7.983 1.618h.154c34.878-.257 70.141-.629 104.825-1.117a20.293 20.293 0 0 0 7.714-1.644c33.27-.552 66.926-1.22 100.107-2.004a20.45 20.45 0 0 0 14.147-6.146 20.408 20.408 0 0 0 5.817-14.274v-30.824a20.425 20.425 0 0 0-6.517-14.937z" fill="#010201"/>
    <path d="M86.994 379.248a44.586 44.586 0 0 1-6.427-6.204 99.148 99.148 0 0 1-6.788-8.72 125.77 125.77 0 0 1-6.544-10.493c-2.1-3.75-4.062-7.556-5.888-11.418a164.613 164.613 0 0 1-11.004 20.357 180.905 180.905 0 0 1-13.537 18.455 1074.69 1074.69 0 0 1-16.301-24.594 94.642 94.642 0 0 0 12.933-17.981 133.956 133.956 0 0 0 10.4-23.94 187.783 187.783 0 0 0 6.993-29.667 252.869 252.869 0 0 0 2.854-35.717 984.579 984.579 0 0 0 25.275 8.039c-.245 10.147-.913 19.561-1.993 28.255a224.721 224.721 0 0 1-4.5 25.019 125.343 125.343 0 0 0 11.75 24.081 78.523 78.523 0 0 0 16.777 18.764 1841.259 1841.259 0 0 0-14 25.764zm38.709 15.733-24.156-.065-1.08-137.923a1448.492 1448.492 0 0 0 24.027 4.932l1.209 133.056zM192.295 341.206a76.768 76.768 0 0 1-13.473-7.578 63.199 63.199 0 0 1-12.432-11.661 60.575 60.575 0 0 1-11.84 10.364 64.072 64.072 0 0 1-14.025 7.103c-4.397-6.73-8.793-13.58-13.19-20.55 13.961-4.803 23.054-13.314 27.28-25.532a1526.747 1526.747 0 0 1-22.703-3.249l-.232-24.505a1232.98 1232.98 0 0 0 68.135 10.673l.232 22.514c-6.66-.694-13.306-1.43-19.94-2.209-.385 1.284-.771 2.491-1.144 3.673a75.807 75.807 0 0 1-1.285 3.673 45.498 45.498 0 0 0 10.4 9.504 69.168 69.168 0 0 0 14.784 7.256 2243.789 2243.789 0 0 0-10.567 20.524zm36.651 40.019c-2.4 4.787-7.113 8.571-14.141 11.354-7.032 2.787-16.713 4.225-29.028 4.225a90.496 90.496 0 0 1-21.045-2.093 42.635 42.635 0 0 1-14.257-5.908 23.518 23.518 0 0 1-8.15-9.209 27.308 27.308 0 0 1-2.649-11.674 25.082 25.082 0 0 1 2.43-11.392 21.055 21.055 0 0 1 7.958-8.592 38.591 38.591 0 0 1 14.141-4.945 92.048 92.048 0 0 1 21.019-.693c7.133.356 14.21 1.44 21.122 3.236a49.452 49.452 0 0 1 14.347 6.203 24.414 24.414 0 0 1 8.15 8.657 22.722 22.722 0 0 1 2.636 10.544 20.109 20.109 0 0 1-2.533 10.287zm-26.02-7.436a7.174 7.174 0 0 0 3.008-1.644 2.704 2.704 0 0 0 .746-1.836 3.2 3.2 0 0 0-.784-1.94 6.976 6.976 0 0 0-3.047-1.811 35.043 35.043 0 0 0-6.428-1.464 105.598 105.598 0 0 0-10.966-.873 96.906 96.906 0 0 0-10.953.064c-2.173.12-4.327.469-6.427 1.04a6.557 6.557 0 0 0-3.009 1.606 2.952 2.952 0 0 0-.745 1.914c.034.749.314 1.467.797 2.042a6.349 6.349 0 0 0 3.034 1.823 36.855 36.855 0 0 0 6.427 1.4c3.638.471 7.299.733 10.966.784 4.5.111 8.151.06 10.953-.154a34.195 34.195 0 0 0 6.428-.951zm26.509-29.873c-8.074-.385-16.143-.814-24.208-1.284-.231-22.63-.458-45.256-.681-67.877 8.082 1.01 16.177 1.948 24.284 2.813.052 6.712.112 13.425.18 20.138 3.446.308 6.904.591 10.349.873.077 8.032.15 16.059.219 24.081a1538.66 1538.66 0 0 1-10.349-.655l.206 21.911zM311.505 349.079c-5.142.342-10.79.642-16.943.899-6.154.257-12.41.449-18.77.578-6.428.128-12.675.231-18.936.282-6.261.052-12.072.065-17.445 0a4976.56 4976.56 0 0 1-.167-19.701c3.788.128 7.786.248 11.994.359 4.208.112 8.493.176 12.856.193v-4.957c-6.994-1.807-12.389-4.765-16.186-8.875a22.133 22.133 0 0 1-5.772-15.412 20.318 20.318 0 0 1 2.237-9.902 18.294 18.294 0 0 1 6.659-7.038 31.553 31.553 0 0 1 10.645-3.943 55.19 55.19 0 0 1 14.012-.668c4.766.288 9.48 1.15 14.039 2.569a36.37 36.37 0 0 1 10.657 5.278 23.77 23.77 0 0 1 6.788 7.706 20.444 20.444 0 0 1 2.417 9.787 18.862 18.862 0 0 1-5.657 14.127c-3.792 3.725-9.179 6.229-16.159 7.449v3.853c7.893-.128 15.786-.299 23.68-.513l.051 17.929zM337.602 384c-2.571 4.049-7.366 7.196-14.385 9.439-7.019 2.244-16.923 3.365-29.71 3.365-7.239.1-14.473-.42-21.623-1.554a48.859 48.859 0 0 1-14.372-4.521 20.388 20.388 0 0 1-8.061-7.166 18.209 18.209 0 0 1-2.571-9.363 17.223 17.223 0 0 1 2.417-9.131 19.045 19.045 0 0 1 7.957-6.91 47.63 47.63 0 0 1 14.334-4.11 131.981 131.981 0 0 1 21.675-1.053c7.268.054 14.521.69 21.688 1.901a52.252 52.252 0 0 1 14.449 4.533 20.268 20.268 0 0 1 8.087 6.833 17.1 17.1 0 0 1 0 17.762l.115-.025zm-53.994-74.62a4.547 4.547 0 0 0 2.829-4.007 5.279 5.279 0 0 0-2.829-4.392 15.989 15.989 0 0 0-7.816-2.093 15.15 15.15 0 0 0-7.803 1.155 4.449 4.449 0 0 0-2.764 4.072 5.233 5.233 0 0 0 2.828 4.405 16.17 16.17 0 0 0 7.816 2.029 15.513 15.513 0 0 0 7.637-1.169h.102zm31.355 67.415a2.882 2.882 0 0 0 .952-1.786 2.196 2.196 0 0 0-.964-1.656 9.071 9.071 0 0 0-3.446-1.375 50.584 50.584 0 0 0-6.878-.95c-2.931-.244-6.659-.385-11.158-.45-4.5-.064-8.228 0-11.146.18a48.03 48.03 0 0 0-6.878.809 8.6 8.6 0 0 0-3.432 1.285 2.177 2.177 0 0 0-.939 1.682 2.318 2.318 0 0 0 .964 1.824 8.897 8.897 0 0 0 3.446 1.413c2.265.497 4.564.823 6.877.976 2.932.248 6.647.389 11.146.424 5.047.125 10.097-.072 15.119-.591 3.175-.424 5.296-1.028 6.235-1.785h.102zm23.231-23.311c-7.842 0-15.689-.077-23.539-.231-.077-23.195-.159-46.394-.244-69.598 7.876.274 15.765.471 23.667.591v25.366l10.284.09v22.796l-10.284-.064.116 21.05zM433.557 345.162a76.557 76.557 0 0 1-13.396-5.805 55.04 55.04 0 0 1-12.329-9.235 65.224 65.224 0 0 1-12.058 10.275 71.966 71.966 0 0 1-14.141 7.308l-13.062-16.26c14.142-5.407 23.41-13.871 27.833-25.198-7.637.205-15.277.351-22.922.436v-20.664a1236.711 1236.711 0 0 0 68.701-2.864c-.052 7.063-.099 14.127-.142 21.191-6.668.385-13.344.723-20.029 1.014-.411 1.221-.81 2.389-1.208 3.52-.399 1.13-.849 2.298-1.286 3.519 2.992 3 6.469 5.475 10.285 7.32a66.376 66.376 0 0 0 14.719 4.932 2317.387 2317.387 0 0 1-10.965 20.511zm35.995 36.243c-2.485 4.821-7.272 8.597-14.359 11.328-7.097 2.736-16.79 4.071-29.106 4.071a103.457 103.457 0 0 1-21.006-1.849 47.696 47.696 0 0 1-14.205-5.137 21.158 21.158 0 0 1-8.035-7.796 19.954 19.954 0 0 1-2.571-9.89 19.637 19.637 0 0 1 2.571-9.85 22.213 22.213 0 0 1 8.099-7.886 48.213 48.213 0 0 1 14.411-5.317 108.846 108.846 0 0 1 21.109-2.312c7.07-.283 14.151.148 21.135 1.284a43.612 43.612 0 0 1 14.27 4.855 20.694 20.694 0 0 1 8.009 7.95 21.107 21.107 0 0 1 2.455 10.275 20.291 20.291 0 0 1-2.699 10.274h-.078zm-25.904-6.357a7.72 7.72 0 0 0 3.034-1.67 2.658 2.658 0 0 0 .784-1.772 2.783 2.783 0 0 0-.758-1.811 6.435 6.435 0 0 0-3.008-1.58 35.245 35.245 0 0 0-6.428-1.053c-3.653-.28-7.317-.37-10.979-.27-3.667.019-7.331.22-10.979.604a37.333 37.333 0 0 0-6.427 1.22 7.44 7.44 0 0 0-3.034 1.567 2.57 2.57 0 0 0-.785 1.734c.029.669.304 1.305.772 1.785a6.167 6.167 0 0 0 3.008 1.503c2.11.526 4.26.873 6.428 1.04 3.647.299 7.307.414 10.966.347 4.512 0 8.163-.219 10.978-.514a36.348 36.348 0 0 0 6.467-1.13h-.039zm26.997-30.567c-8.082.342-16.164.651-24.246.925.155-21.483.313-42.965.476-64.448 8.116-.616 16.224-1.305 24.323-2.067-.052 6.635-.107 13.275-.167 19.919l10.361-.86-.231 24.248-10.285.642c-.025 7.218-.068 14.436-.128 21.654l-.103-.013zM584.88 387.12c-34.881.48-69.776.852-104.683 1.118.06-7.629.128-15.262.206-22.9 13.327-.359 26.645-.787 39.955-1.284 0-4.457.09-8.926.141-13.383 8.254-.419 16.507-.873 24.76-1.361 0 4.585-.09 9.183-.141 13.768 13.344-.548 26.68-1.165 40.007-1.849-.077 8.63-.159 17.261-.245 25.891zm-7.623-43.911a2937.469 2937.469 0 0 1-88.627 5.292c.206-23.212.42-46.411.643-69.598 7.85-.856 15.701-1.785 23.551-2.787l-.154 15.721a1431.473 1431.473 0 0 0 41.742-5.292c.052-5.514.108-11.024.168-16.529a1270.124 1270.124 0 0 0 23.41-4.046l-.733 77.239zm-23.204-21.692c.051-4.058.094-8.117.128-12.175a1697.543 1697.543 0 0 1-41.729 4.187l-.116 11.559a1704.092 1704.092 0 0 0 41.717-3.545v-.026zM692.547 383.473c-34.83.856-69.686 1.55-104.568 2.081l.231-25.995a3415.075 3415.075 0 0 0 31.201-1.785l.334-45.902c8.022-1.07 16.027-2.183 24.015-3.339-.095 15.9-.18 31.8-.257 47.7a4643.054 4643.054 0 0 0 49.044-3.571v30.811zm-36.819-42.948a414.602 414.602 0 0 0 2.469-15.669 405.592 405.592 0 0 0 1.761-14.936c.488-5.009.84-10.116 1.054-15.322.214-5.206.334-10.823.36-16.85a1492.151 1492.151 0 0 1-65.217 11.802l.232-26.277a1233.993 1233.993 0 0 0 88.845-20.986c.373 20.164 0 38.53-1.106 54.957-1.105 16.426-2.725 30.952-4.872 43.667l-23.526-.386z" fill="#EDBE31"/>
    <path d="M264.209 430.775h-9.346v8.63h10.838v2.184h-24.233v-2.184h10.901v-8.63h-9.461v-15.489h21.276l.025 15.489zm-2.442-2.222v-11.071h-16.404v11.071h16.404zM272.669 425.599h8.163v-10.275h2.391v25.494h-12.984v-25.532h2.43v10.313zm8.163 13.113v-10.917h-8.163v10.917h8.163zm10.58-23.927v11.79h4.448v2.196h-4.448v14.128h-2.43v-28.114h2.43zM297.878 421.219a6.333 6.333 0 0 1 2.276-5.137 8.196 8.196 0 0 1 9.564 0 6.799 6.799 0 0 1 1.683 7.862 6.808 6.808 0 0 1-1.683 2.297 8.196 8.196 0 0 1-9.564 0 6.425 6.425 0 0 1-2.276-5.022zm4.526 16.619v3.288h18.1v2.042h-20.569v-7.41h17.805v-3.262h-17.805v-2.068h20.235v7.41h-17.766zm-2.16-16.619a4.333 4.333 0 0 0 1.401 3.352 5.348 5.348 0 0 0 6.582 0 4.824 4.824 0 0 0 0-6.717 5.351 5.351 0 0 0-6.582 0 4.36 4.36 0 0 0-1.401 3.365zm19.939 6.961h-2.43v-13.395h2.43v13.395zM329.375 425.136v5.51h19.206v2.171h-9.706v6.588h10.837v2.184h-24.233v-2.184h10.928v-6.588h-9.475v-9.851h18.834v-5.484h-18.834v-2.196h21.276v9.85h-18.833zM368.713 432.817a12.735 12.735 0 0 1-7.894 8.091v-2.325c3.446-1.592 6.672-4.765 6.672-12.509v-10.942h2.43V426.1c0 7.706 3.265 10.814 6.634 12.509v2.325a13.137 13.137 0 0 1-7.842-8.117zm15.028-17.981v28.037h-2.468v-28.088l2.468.051zM389.526 415.132h13.846v2.183h-5.734v2.016a7.704 7.704 0 0 0 6.209 7.989v2.26a10.656 10.656 0 0 1-7.366-5.355 10.611 10.611 0 0 1-7.418 5.728v-2.248c3.369-.796 6.145-3.583 6.145-8.374v-2.016h-5.695l.013-2.183zm1.222 22.629a4.533 4.533 0 0 1 2.044-3.853c1.876-1.374 4.898-2.029 8.484-2.029 3.587 0 6.608.655 8.459 2.029a4.533 4.533 0 0 1 2.044 3.853 4.6 4.6 0 0 1-2.044 3.853c-1.851 1.285-4.872 1.952-8.459 1.952-3.586 0-6.608-.603-8.484-1.952a4.605 4.605 0 0 1-2.044-3.878v.025zm2.468 0a2.71 2.71 0 0 0 1.285 2.261c1.286.937 3.677 1.374 6.75 1.374 3.072 0 5.425-.437 6.787-1.374a2.735 2.735 0 0 0 1.286-2.261 2.672 2.672 0 0 0-1.286-2.26 12.654 12.654 0 0 0-6.787-1.4c-3.073 0-5.451.462-6.75 1.4a2.646 2.646 0 0 0-1.285 2.235v.025zm17.869-22.951v6.525h4.165v2.222h-4.165v7.218h-2.442v-15.99l2.442.025zM421.035 421.181h16.456v-5.895h2.429v16.811h-9.333v7.308h10.76v2.184H417.14v-2.184h10.927v-7.308h-9.461v-16.811h2.429v5.895zm16.456 8.682v-6.422h-16.456v6.422h16.456zM445.564 415.286h14.617v2.196h-6.12v8.849c0 7.179 3.201 10.66 6.428 12.252v2.325a13.511 13.511 0 0 1-7.572-7.873 13.643 13.643 0 0 1-2.981 4.732 13.673 13.673 0 0 1-4.629 3.141v-2.325c3.136-1.541 6.427-5.073 6.427-12.252v-8.849h-6.067l-.103-2.196zm21.52-.501v11.79h4.448v2.196h-4.474v14.128h-2.429v-28.114h2.455z" fill="#fff"/>
</svg>
